<svg height="511pt" viewBox="-93 0 511 511.99767" width="511pt" xmlns="http://www.w3.org/2000/svg"><path d="m301.542969 507.941406c-.554688 0-1.109375-.003906-1.664063-.015625l-27.960937-.367187-.300781-3.621094c-2.015626-24.324219-1.421876-48.898438 1.761718-73.042969-3.210937 23.902344-3.828125 48.226563-1.886718 72.292969l.351562 4.378906-65.769531-.859375 2.664062-5.628906c3.902344-8.253906 9.007813-16.085937 13.515625-22.996094l.507813-.777343c1.25-1.925782 2.496093-3.84375 3.722656-5.777344 6.773437-10.65625 13.933594-23.398438 15.703125-37.148438 1.636719-12.683594-1.941406-25.027344-9.578125-33.015625l-3.292969-3.449219 3.972656-2.644531c8.480469-5.648437 19.289063-15.175781 22.613282-28.480469 2.828125-11.308593-.347656-22.417968-3.511719-29.746093-1.429687-3.300781-3.167969-6.648438-5.316406-10.226563l-7.941407-13.226562 13.367188 7.703125c3.480469 2 7.039062 3.949219 10.484375 5.832031l.699219.382812c3.859375 2.09375 7.347656 3.992188 10.789062 5.972657 11.886719 6.828125 26.613282 16.527343 35.105469 31.039062 9.503906 16.246094 10.050781 36.035157 10.535156 53.492188l1.859375 67.835937c.171875 6.375 0 12.960938-4.097656 17.28125-4.003906 4.230469-10.214844 4.8125-16.332031 4.8125zm0 0" fill="#f0f2fa"/><path d="m58.441406 504.796875 1.453125-80.542969-1.441406 76.566406-.070313 3.980469-26.191406-.34375c-8.492187-.109375-16.5625-.652343-21.984375-6-6.480469-6.390625-6.023437-16.710937-5.089843-25.882812l5.316406-52.152344c3.140625-30.726563 7.609375-59.890625 27.574218-79.019531 10.277344-9.859375 23.800782-15.832032 35.734376-21.101563l.09375-.042969c4.179687-1.84375 8.867187-3.917968 13.316406-6.097656l4.984375 5.957032c-5.6875 7.746093-10.503907 15.230468-13.628907 20.1875-3.371093 5.332031-6.453124 11.101562-6.199218 17.136718.234375 5.371094 3.109375 10.789063 8.101562 15.246094 4.109375 3.691406 9.097656 6.332031 13.921875 8.886719l1.011719.527343c3.125 1.660157 6.316406 3.792969 6.457031 7.105469.128907 2.582031-1.71875 4.6875-3.507812 6.71875l-.109375.125c-.132813.148438-.261719.296875-.390625.441407l-.257813.292968c-6.109375 7.058594-9.160156 17.28125-8.558594 28.742188.542969 10.273437 3.835938 20.363281 7.160157 29.8125 4.996093 14.207031 11.214843 30.46875 21.808593 43.6875l5.296876 6.609375zm0 0" fill="#f0f2fa"/><path d="m189.519531 352.1875-.234375-.632812-.59375-.355469-.472656-.589844-18.296875-22.144531 3.171875-2.539063c.832031-.664062 1.53125-1.367187 2.152344-1.984375l.089844-.089844c10.996093-11.105468 21.726562-22.910156 31.886718-35.082031l8.011719-9.601562-7.277344 95.351562zm0 0" fill="#b2eaf9"/><path d="m124.421875 359.371094c-.007813-22.074219.289063-44.273438.882813-65.980469l.34375-12.574219 6.980468 10.460938c8.242188 12.351562 18.0625 23.578125 29.195313 33.367187.679687.597657 1.507812 1.320313 2.472656 1.945313l4.453125 2.886718-44.324219 38.691407zm0 0" fill="#b2eaf9"/><path d="m197.953125 506.59375 16.761719-219.875 6.390625 8.703125c4.449219 6.050781 9.46875 10.660156 12.898437 13.457031.222656.179688.472656.371094.722656.5625l.621094.484375.703125.554688.4375.871093c5.542969 7.664063 11.796875 16.34375 15.847657 25.722657 3.160156 7.324219 6.332031 18.421875 3.511718 29.703125-3.742187 14.976562-16.792968 25.25-27.082031 31.230468 10.015625 7.355469 15.261719 21.609376 13.355469 36.363282-1.753906 13.664062-8.570313 25.917968-15.679688 37.121094-1.398437 2.195312-2.816406 4.375-4.234375 6.554687-5.128906 7.871094-10.941406 16.785156-14.964843 26.203125l-1.054688 2.46875zm0 0" fill="#fff"/><path d="m121.597656 503.144531c-12.761718-13.789062-19.800781-31.917969-25.398437-47.828125-3.320313-9.421875-6.609375-19.488281-7.148438-29.796875-.617187-11.445312 2.429688-21.652343 8.570313-28.742187l.648437-.742188c1.753907-1.976562 3.730469-4.207031 3.601563-6.871094-.171875-3.347656-3.554688-5.554687-6.476563-7.097656l-.90625-.480468c-5.109375-2.703126-9.90625-5.238282-14.035156-8.9375-4.90625-4.394532-7.851563-9.9375-8.074219-15.207032-.269531-6.304687 3.050782-12.132812 6.183594-17.105468 6.832031-10.835938 17.347656-26.722657 29.734375-39.5625l.109375-.117188.449219-.398438c.300781-.261718.597656-.523437.886719-.789062 3.40625-3.148438 6.125-6.089844 8.3125-9.003906l7.539062-10.03125-.34375 12.542968c-1.882812 68.855469-.78125 138.574219 3.277344 207.214844l.65625 11.152344zm0 0" fill="#fff"/><path d="m272.453125 187.703125c.109375-4.945313-1.640625-9.546875-4.796875-12.632813-2.5-2.449218-5.226562-3.640624-8.339844-3.640624-4.429687 0-9.066406 2.324218-13.019531 4.597656l-6.179687 3.554687.1875-7.128906c.046874-1.789063.300781-3.574219.546874-5.296875.289063-2.027344.53125-3.871094.582032-5.832031.203125-7.347657-.402344-14.679688-1.796875-21.792969-2.851563-14.507812-8.960938-27.769531-17.671875-38.347656-13.871094-16.851563-34.613282-26.910156-55.484375-26.910156-3.429688 0-6.84375.277343-10.148438.832031-18.855469 3.160156-36.292969 14.996093-47.84375 32.472656-7.347656 11.109375-12.203125 24.113281-14.433593 38.648437-.867188 5.699219-1.625 11.769532-.492188 17.808594.082031.46875.152344 1.179688.304688 2.824219l.046874.511719c.160157 1.777344.296876 3.3125.445313 4.667968l.511719 4.738282-4.753906-.316406c-.769532-.050782-1.5625-.074219-2.355469-.074219-4.597657 0-9.332031.835937-13.691407 2.421875-5.511718 2.011718-9.769531 5.527344-11.992187 9.902344l-1.453125 2.867187-3.113281-.804687c-11.828125-3.054688-25.894531-8.125-29.726563-20.324219-2.945312-9.367188 1.667969-18.976563 6.96875-24.847657 6.128906-6.792968 14.25-11.128906 22.105469-15.320312-1.925781-2.910156-5.394531-3.484375-10.371094-3.484375 0 0-1.191406.003906-1.238281.003906-.644531 0-1.261719-.003906-1.859375-.011719-4-.054687-8.832031-2.527343-9.359375-5.984374l-.171875-1.109376.433594-1.035156c.710937-1.707031 2.328125-2.695312 4.214843-3.726562l35.648438-19.347656c-.269531-.027344-.53125-.03125-.789062-.03125-.140626 0-.277344.003906-.410157.003906-12.917969 0-22.996093-10.78125-26.894531-20.796875-2.957031-7.609375-3.929688-16.710938-2.964844-27.824219l.738282-8.511719 6.0625 6.015625c12.664062 12.566406 30.078124 19.773438 47.773437 19.773438 1.117187 0 2.25-.027344 3.359375-.089844-5.621094-7.921875-10.1875-16.539062-13.535156-25.664062-.914063-2.519532-1.589844-5.132813-.351563-7.253907.453125-.808593 1.433594-1.894531 3.351563-2.1875.335937-.050781.667968-.074219 1.003906-.074219 2.304688 0 5.121094 1.175782 7.003906 2.925782.855469.808594 1.632813 1.65625 2.457032 2.550781l.074218.082031c2.273438 2.496094 4.40625 4.839844 7.515625 5.574219.546875.132813 1.136719.195313 1.75.195313 1.84375 0 6.539063-.65625 10.375-6.742188 1.308594-2.074219 2.3125-4.378906 3.199219-6.414062 1.050781-2.398438 2.019531-4.613282 3.371094-6.691407 6.621094-10.199219 19.605468-13.386719 32.335937-15.773437 2.019531-.382813 3.726563-.566406 5.214844-.566406 3.289063 0 5.644531.976562 7.011719 2.90625 2.925781 4.105468-.496094 9.734374-2.796875 12.722656-2.492188 3.234375-6.222657 8.085937-4.523438 12.640625 9.3125-9.710938 22.441407-15.460938 36.082031-15.769531l7.078126-.160157-11.167969 19.515625c9.964843-5.511718 21.339843-8.445312 32.9375-8.445312 4.898437 0 9.765625.53125 14.457031 1.585937 3.421875.773438 7.742188 2.027344 10.910156 4.914063 2.742188 2.507812 4.820313 6.84375 3.285156 10.894531-1.363281 3.644531-5.121093 5.808594-8.757812 7.898437-5.113281 2.949219-8.445312 5.1875-8.480469 9.449219-.023437 3.460938 2.585938 6.667969 7.753907 9.523438 10.558593 5.835937 22.621093 9.207031 34.882812 9.757812l8.390625.371094-5.578125 6.28125c-5.992188 6.742187-13.066406 12.222656-21.027344 16.292969 9.925782.574218 19.808594 3.328125 28.585938 8.03125 2.289062 1.214844 5.046875 2.96875 5.914062 5.710937 1.167969 3.667969-1.480468 7.394531-4.5625 9.035157-3.300781 1.765624-7.421875 1.871093-10.730468 1.960937 12.730468 6.015625 20.804687 21.003906 18.757812 34.921875-1.929688 13.101562-12.824219 24.699219-25.90625 27.574219l-4.96875 1.09375zm0 0" fill="#fff"/><path d="m128.910156 505.710938-.222656-3.714844c-.21875-3.726563-.4375-7.457032-.640625-11.183594l-.054687-1.054688.472656-.949218c7.660156-40.75 19.964844-80.035156 30.992187-113.085938l.941407-2.816406 2.96875.085938c.300781.007812.601562.015624.886718.015624.640625 0 1.25-.027343 1.8125-.054687l9.222656-.488281c1.023438-.046875 2.175782-.117188 3.273438-.367188l4.078125-.925781.746094 4.113281c2.875 15.859375 5.597656 33.457032 7.789062 47.601563 2.527344 16.359375 5.398438 34.898437 8.5 51.539062l.578125 1.046875-.085937 1.179688-2.285157 29.953125zm0 0" fill="#5b5d6d"/><path d="m164.296875 372.953125c-1.96875 0-3.375-.289063-4.554687-.929687-1.960938-1.058594-3.152344-3.074219-4.300782-5.222657-2.636718-4.949219-5.113281-10.183593-7.367187-15.554687l-1.117188-2.660156 22.964844-20.042969 19.207031 23.265625-4.953125 13.996094c-.734375 2.101562-1.472656 3.953124-3.039062 5.117187-1.523438 1.179687-3.648438 1.375-5.871094 1.484375l-8.96875.476562c-.632813.035157-1.320313.070313-2 .070313zm0 0" fill="#5b5d6d"/><g fill="#ffdac4"><path d="m204.550781 210.671875c-9.664062 0-18.988281-5-23.753906-12.734375-5.210937-8.445312-5.8125-20.21875-1.527344-29.996094 2.246094-5.117187 7.773438-14.042968 19.542969-16.320312 1.191406-.234375 2.449219-.351563 3.730469-.351563 6.332031 0 12.847656 2.988281 18.339843 8.414063 7.957032 7.886718 12.035157 18.742187 10.40625 27.664062-1.785156 9.773438-8.632812 18.269532-17.445312 21.644532-2.90625 1.117187-6.035156 1.679687-9.292969 1.679687zm0 0"/><path d="m134.382812 210.671875c-3.261718 0-6.386718-.5625-9.289062-1.679687-8.8125-3.375-15.660156-11.871094-17.445312-21.644532-1.628907-8.925781 2.449218-19.78125 10.398437-27.660156 5.5-5.433594 12.015625-8.421875 18.347656-8.421875 1.261719 0 2.519531.121094 3.730469.355469 11.773438 2.277344 17.296875 11.203125 19.542969 16.320312 4.28125 9.765625 3.679687 21.539063-1.527344 29.996094-4.765625 7.734375-14.089844 12.734375-23.757813 12.734375zm0 0"/><path d="m170.367188 278.800781c-11.582032 0-23.03125-2.679687-33.101563-7.75-21.265625-10.695312-36.535156-31.976562-39.855469-55.542969-4.117187 3.5625-8.976562 5.457032-14.109375 5.457032-5.113281 0-10.226562-1.859375-14.394531-5.238282-2.390625-1.941406-4.335938-4.265624-5.792969-6.902343-1.472656-2.660157-2.394531-5.539063-2.742187-8.554688-.476563-4.164062.082031-8.046875 1.617187-11.242187 2.125-4.429688 6.539063-8.132813 12.105469-10.15625 4.371094-1.597656 9.101562-2.445313 13.667969-2.445313 2.773437 0 5.394531.3125 7.785156.929688l-.398437-.605469-.132813-.761719c-.382813-1.648437-.722656-5.117187-1.039063-8.625l-.023437-.265625c-.144531-1.59375-.242187-2.644531-.320313-3.070312-1.140624-6.0625-.382812-12.117188.488282-17.796875 2.207031-14.335938 7.191406-27.691407 14.414062-38.625 11.386719-17.207031 29.261719-29.332031 47.816406-32.441407 3.324219-.554687 6.75-.839843 10.1875-.839843 20.808594 0 41.511719 10.058593 55.382813 26.902343 8.707031 10.578126 14.8125 23.832032 17.65625 38.320313 1.394531 7.089844 2 14.417969 1.800781 21.769531-.054687 1.992188-.320312 3.894532-.578125 5.738282l-.015625.109374c-.53125 3.8125-1.082031 7.742188.445313 11.863282.921875-.480469 1.8125-1.003906 2.734375-1.558594 5.496094-3.261719 10.417968-5.953125 15.15625-5.953125 3.195312 0 6.054687 1.210937 8.488281 3.597656 3.578125 3.496094 5.351563 9.144531 4.617187 14.734375-.511718 3.957032-2.140624 8.074219-4.976562 12.589844-2.988281 4.765625-6.175781 8.066406-9.742188 10.089844-2.496093 1.410156-5.246093 2.152344-7.960937 2.152344-2.03125 0-3.980469-.4375-5.625-1.269532-4.003906 24.539063-18.304687 45.671875-38.296875 56.550782-10.632812 5.78125-22.824219 8.835937-35.257812 8.839843zm5.828124-98.859375.171876 3.46875c.265624 5.320313 1.777343 10.351563 4.378906 14.554688 4.78125 7.769531 14.101562 12.785156 23.757812 12.785156 3.273438 0 6.425782-.570312 9.355469-1.695312 8.839844-3.382813 15.703125-11.898438 17.488281-21.691407 1.640625-8.953125-2.449218-19.832031-10.417968-27.71875-5.503907-5.445312-12.03125-8.445312-18.378907-8.445312-1.261719 0-2.523437.121093-3.75.359375-8.613281 1.664062-15.75 7.628906-19.585937 16.359375-1.152344 2.617187-1.96875 5.398437-2.433594 8.269531l-.597656 3.683594-13.566406-1.234375-.542969-3c-.476563-2.644531-1.269531-5.242188-2.355469-7.71875-3.835938-8.734375-10.972656-14.695313-19.585938-16.359375-1.226562-.238282-2.484374-.359375-3.75-.359375-6.347656 0-12.875 3-18.375 8.445312-7.96875 7.882813-12.0625 18.765625-10.429687 27.71875 1.792969 9.792969 8.660156 18.308594 17.492187 21.691407 2.9375 1.125 6.085938 1.695312 9.359376 1.695312 9.65625 0 18.980468-5.015625 23.753906-12.777344 2.683594-4.347656 4.203125-9.546875 4.402344-15.035156l.152343-4.226562zm0 0"/><path d="m168.242188 327.886719c-2.492188-.019531-4.601563-1.714844-6.386719-3.296875-14.550781-12.792969-26.742188-27.894532-36.226563-44.871094l-1.253906-1.46875.332031-1.9375c.328125-1.679688.496094-3.425781.503907-5.183594l.035156-7.25 6.113281 3.894532c1.894531 1.207031 3.871094 2.328124 5.871094 3.328124 10.074219 5.070313 21.53125 7.746094 33.132812 7.746094 12.261719 0 24.277344-2.957031 34.796875-8.5625l.753906-.757812 1.679688-.007813h3.496094l.464844 3.464844c.277343 2.042969.710937 4.101563 1.292968 6.113281l.578125 2.007813-1.316406 1.621093c-11.542969 14.242188-23.9375 28.066407-36.835937 41.085938-2.042969 2.0625-4.265626 4.074219-7.011719 4.074219zm0 0"/></g><path d="m191.242188 422.875c1.117187 7.28125 2.269531 14.65625 3.441406 21.984375l7.9375-.328125 5.40625-70.941406s-2.003906-1.335938-2.03125-1.359375l-16.8125-20.363281-4.957032 13.976562c-.328124.941406-.660156 1.859375-1.132812 2.742188l-.667969 1.253906.273438 1.398437c.019531.101563.042969.203125.066406.296875 2.976563 15.925782 5.679687 33.332032 8.292969 50.164063zm0 0" fill="#5bd0fc"/><path d="m155.382812 366.828125c-2.257812-4.234375-4.394531-8.660156-6.351562-13.148437l-2.183594-5.003907-19.667968 17.179688-2.75.914062.011718 2.898438c.140625 30.019531.847656 60.394531 2.105469 90.289062l7.886719.761719c7.609375-31.863281 17.394531-62.355469 25.074218-85.363281l.828126-2.480469-1.9375-1.75c-1.394532-1.265625-2.332032-3.019531-3.015626-4.296875zm0 0" fill="#5bd0fc"/><path d="m134.433594 214.753906c10.753906 0 21.476562-5.453125 27.164062-14.679687 3.101563-5.03125 4.765625-10.933594 4.980469-16.996094l5.789063.527344c.292968 5.875 1.960937 11.582031 4.972656 16.46875 5.6875 9.226562 16.410156 14.675781 27.160156 14.675781 3.660156 0 7.328125-.628906 10.796875-1.960938 10.109375-3.875 17.957031-13.574218 19.992187-24.710937 1.867188-10.210937-2.664062-22.488281-11.546874-31.277344-7.597657-7.519531-16.964844-10.863281-25.703126-9.171875-9.925781 1.921875-18.121093 8.726563-22.488281 18.675782-1.308593 2.980468-2.203125 6.097656-2.71875 9.246093l-6.824219-.621093c-.53125-2.9375-1.402343-5.839844-2.625-8.625-4.367187-9.945313-12.5625-16.753907-22.488281-18.675782-8.730469-1.6875-18.105469 1.652344-25.699219 9.171875-8.882812 8.789063-13.414062 21.066407-11.546874 31.28125 2.035156 11.132813 9.882812 20.832031 19.988281 24.707031 3.472656 1.332032 7.136719 1.964844 10.796875 1.964844zm48.5-45.207031c1.933594-4.398437 6.664062-12.070313 16.636718-14 .976563-.1875 1.96875-.28125 2.96875-.28125 5.25 0 10.765626 2.550781 15.53125 7.265625 6.933594 6.863281 10.667969 16.550781 9.285157 24.101562-1.539063 8.425782-7.40625 15.738282-14.945313 18.628907-9.996094 3.832031-22.648437-.394531-28.207031-9.417969-4.542969-7.378906-5.042969-17.699219-1.269531-26.296875zm-71.355469 17.085937c-1.378906-7.550781 2.351563-17.238281 9.289063-24.101562 5.675781-5.617188 12.421874-8.160156 18.5-6.984375 9.972656 1.929687 14.703124 9.601563 16.632812 14 3.773438 8.597656 3.277344 18.917969-1.269531 26.296875-5.558594 9.023438-18.214844 13.246094-28.207031 9.417969-7.539063-2.890625-13.402344-10.203125-14.945313-18.628907zm0 0"/><path d="m326.03125 485.742188-1.859375-67.816407c-.46875-17.0625-1.050781-38.300781-11.089844-55.457031-8.980469-15.351562-24.269531-25.4375-36.585937-32.511719-3.601563-2.066406-7.300782-4.078125-10.878906-6.023437-9.96875-5.421875-20.277344-11.03125-29.039063-18.195313-13.085937-10.699219-20.859375-24.175781-21.324219-36.976562-.003906-.027344-.011718-.054688-.011718-.085938 15.894531-11.46875 27.386718-29.46875 31.804687-50.105469 4.070313.570313 8.515625-.28125 12.449219-2.503906 4.160156-2.347656 7.820312-6.101562 11.191406-11.46875 1.839844-2.933594 3.214844-5.734375 4.167969-8.46875.117187.007813.226562.03125.34375.03125.191406 0 .386719-.015625.585937-.042968 15.886719-2.3125 29.117188-15.519532 31.453125-31.40625 1.800781-12.230469-3.039062-24.800782-12-33.035157.628907-.242187 1.253907-.523437 1.867188-.851562 4.523437-2.410157 8.351562-8.082031 6.523437-13.847657-1.304687-4.117187-4.886718-6.476562-7.867187-8.070312-5.875-3.148438-12.226563-5.472656-18.765625-6.894531 6.953125-5.035157 13.046875-11.234375 17.945312-18.304688.878906-1.269531.957032-2.929687.199219-4.277343-.761719-1.34375-2.234375-2.144532-3.761719-2.042969-14.019531.875-28.523437-2.390625-40.824218-9.1875-2.121094-1.171875-5.671876-3.5-5.65625-5.933594.019531-2.035156 2.066406-3.4375 6.40625-5.9375 4.066406-2.339844 8.675781-4.992187 10.570312-10.007813 1.910156-5.054687.160156-11.214843-4.351562-15.328124-3.890626-3.546876-8.859376-5.003907-12.753907-5.878907-12.726562-2.855469-26.289062-2.03125-38.65625 2.175781l4.820313-8.417968c.671875-1.171875.710937-2.605469.101562-3.816406-.609375-1.207032-1.785156-2.03125-3.128906-2.1875-11.746094-1.390626-23.90625 1.289062-34.164062 7.195312 3.8125-5.878906 4.316406-11.292969 1.375-15.433594-4.414063-6.207031-13.039063-4.5898435-16.285157-3.976562-13.597656 2.554687-27.5 6.011718-34.992187 17.554687-1.542969 2.375-2.632813 4.863281-3.683594 7.269531-.925781 2.117188-1.800781 4.121094-2.914062 5.890626-1.800782 2.851562-5.042969 5.402343-7.753907 4.757812-1.886719-.445312-3.53125-2.253906-5.441406-4.347656-.871094-.953125-1.773437-1.941406-2.769531-2.871094-3.132813-2.925781-7.589844-4.460938-11.339844-3.914062-2.722656.398437-4.957031 1.871093-6.289062 4.148437-2.394532 4.078125-.691407 8.726563.035156 10.714844 2.578125 7.03125 5.855468 13.78125 9.78125 20.144531-17.929688-1.234375-35.121094-10.261719-46.121094-24.578125-.984375-1.285156-2.644531-1.851563-4.210938-1.445313-1.566406.410157-2.738281 1.714844-2.972656 3.316407-1.765625 12.027343-2.894531 26.0625 2.113282 38.9375 3.875 9.96875 11.355468 17.628906 19.980468 21.191406l-25.664062 13.929687c-1.773438.964844-4.738282 2.574219-6.058594 5.761719-1.078125 2.605469-.800781 5.367188.78125 7.773438 2.640625 4.019531 8.082031 5.90625 12.023438 5.964843.671874.011719 1.367187.007813 2.070312.003907.65625-.003907 1.316406-.007813 1.964844 0-5.5625 3.230469-11.128906 7.023437-15.636719 12.019531-7.714844 8.5625-10.714844 19.59375-7.824219 28.789062 4.273438 13.59375 18.433594 19.363282 32.386719 22.984376-.207031 1.957031-.203125 4 .039063 6.089843.832031 7.136719 4.386718 13.578125 10.011718 18.136719 8.394532 6.804688 19.242188 7.925781 28.1875 3.402344 3.796875 16.601562 13.1875 31.742187 26.1875 42.671875-.097656.492187-.113281 1.007812-.015625 1.527343 1.722657 9.160157-1.320312 17.257813-10.09375 26.4375-.242187.144532-.476562.316407-.691406.515626-1.46875 1.378906-2.90625 2.816406-4.324219 4.28125-9.507812 8.261718-21.625 13.625-33.367187 18.8125l-.105469.046874c-12.246094 5.40625-26.125 11.539063-36.933594 21.894532-20.960937 20.09375-25.582031 50.039062-28.796875 81.542968l-5.324219 52.148438c-.742187 7.304688-2.132812 20.902344 6.28125 29.195312 6.5 6.402344 15.808594 7.054688 24.78125 7.171876l267.695313 3.464843c.527344.003907 1.058594.007813 1.59375.007813 6.875 0 14.332031-.714844 19.40625-6.078125 5.597656-5.914063 5.351563-14.84375 5.203125-20.175781zm-94.558594-173.761719c.457032.371093.933594.722656 1.398438 1.089843.082031.15625.160156.316407.265625.464844 5.730469 7.945313 11.65625 16.160156 15.523437 25.125 2.914063 6.753906 5.855469 16.945313 3.304688 27.144532-3.40625 13.621093-15.589844 23.152343-25.210938 28.742187-1.175781.6875-1.929687 1.917969-2 3.277344-.070312 1.359375.550782 2.664062 1.652344 3.464843 8.855469 6.460938 13.46875 19.246094 11.75 32.574219-1.664062 12.914063-8.242188 24.6875-15.097656 35.484375-1.382813 2.179688-2.796875 4.347656-4.210938 6.519532-5.519531 8.476562-11.195312 17.234374-15.285156 26.8125l-1.300781-.019532 15.625-204.871094c4.539062 6.179688 9.667969 10.984376 13.585937 14.191407zm-32.839844 132.246093c-1.171874-7.316406-2.316406-14.691406-3.441406-21.960937-2.683594-17.328125-5.457031-35.246094-8.523437-51.65625-.007813-.050781-.03125-.09375-.039063-.140625.625-1.183594 1.046875-2.359375 1.378906-3.304688l2.585938-7.300781 12.359375 14.960938c.265625.324219.582031.574219.914063.792969zm-53.265624-88.945312c1.988281 4.558594 4.160156 9.058594 6.488281 13.429688.773437 1.453124 1.945312 3.644531 3.859375 5.378906-8.636719 25.886718-17.886719 55.207031-25.167969 85.699218-1.261719-29.980468-1.960937-60.074218-2.101563-90.140624.476563-.164063.933594-.414063 1.335938-.765626zm16.289062 13.226562c-1.003906-.542968-1.875-2.070312-2.683594-3.589843-2.632812-4.9375-5.042968-10.046875-7.214844-15.214844l17.695313-15.441406 15.152344 18.351562-4.195313 11.859375c-.40625 1.144532-.960937 2.710938-1.652344 3.238282-.714843.542968-2.429687.632812-3.683593.699218l-8.988281.476563c-1.515626.078125-3.40625.179687-4.429688-.378907zm43.070312-4.191406-11.695312-14.160156c-.316406-.859375-.90625-1.609375-1.726562-2.09375l-15.707032-19.015625c1.046875-.839844 1.910156-1.707031 2.566406-2.371094 11.160157-11.265625 21.9375-23.132812 32.128907-35.347656zm-76.304687-4.949218c-.007813-22 .285156-43.976563.878906-65.871094 8.421875 12.625 18.429688 24.078125 29.886719 34.15625.726562.636718 1.71875 1.507812 2.941406 2.300781zm3.617187 131.234374c.164063-.324218.292969-.667968.363282-1.039062 7.488281-39.878906 19.679687-79.09375 30.84375-112.574219.34375.015625.683594.023438 1.011718.023438.804688 0 1.566407-.039063 2.25-.074219l8.992188-.476562c1.105469-.054688 2.5-.132813 3.957031-.460938 2.761719 15.214844 5.300781 31.597656 7.765625 47.5 2.683594 17.328125 5.457032 35.242188 8.523438 51.65625.078125.433594.234375.828125.433594 1.195312l-1.996094 26.207032-61.5-.796875c-.222656-3.71875-.4375-7.4375-.644532-11.160157zm-100.4375-321.351562c-2.4375-7.753906 1.566407-15.917969 6.125-20.972656 5.632813-6.25 13.453126-10.429688 21.011719-14.472656 1.007813-.535157 1.738281-1.476563 2.011719-2.582032.277344-1.109375.070312-2.277344-.566406-3.226562-3.546875-5.261719-10.050782-5.230469-14.816406-5.203125-.648438.003906-1.289063.007812-1.914063 0-2.824219-.042969-5.351563-1.816407-5.46875-2.59375.226563-.550781 1.789063-1.398438 2.457031-1.757813l35.628906-19.339844c1.65625-.898437 2.46875-2.824218 1.957032-4.640624-.511719-1.8125-2.214844-3.023438-4.09375-2.929688-10.984375.578125-20.449219-8.730469-24.140625-18.21875-3.207031-8.25-3.453125-17.382812-2.707031-26.03125 14.152343 14.03125 34.167968 21.882812 54.160156 20.832031 1.472656-.074219 2.785156-.949219 3.425781-2.277343.636719-1.328126.5-2.898438-.359375-4.097657-5.449219-7.589843-9.839844-15.886719-13.054688-24.65625-.925781-2.53125-.863281-3.5-.652343-3.863281.054687-.089844.113281-.191406.5-.25 1.289062-.1875 3.394531.632812 4.675781 1.828125.757812.710937 1.511719 1.539063 2.308594 2.414063 2.457031 2.691406 5.238281 5.742187 9.542968 6.761718 4.5 1.066406 11.496094-.472656 16.433594-8.3125 1.4375-2.28125 2.476563-4.65625 3.480469-6.953125.964844-2.207031 1.875-4.292969 3.058594-6.113281 5.753906-8.867188 17.835937-11.785156 29.714843-14.019531 4.515626-.847657 7.28125-.605469 8.226563.722656 1.21875 1.714844-.695313 5.363281-2.699219 7.96875-2.835937 3.675781-7.578125 9.835937-5.105468 16.480469.484374 1.300781 1.605468 2.261718 2.96875 2.542968 1.359374.277344 2.769531-.160156 3.726562-1.167968 8.542969-8.972656 20.847656-14.261719 33.230469-14.546875l-7.65625 13.371093c-.898438 1.574219-.640625 3.554688.636719 4.839844 1.273437 1.289063 3.25 1.566406 4.832031.683594 13.359375-7.476562 29.585937-9.839844 44.523437-6.488281 2.925782.65625 6.601563 1.703125 9.089844 3.96875 1.738281 1.585937 3.066406 4.335937 2.238281 6.523437-.871093 2.316406-3.871093 4.042969-7.046875 5.871094-4.628906 2.664062-10.390625 5.980469-10.445312 12.859375-.039063 5.039063 3.265625 9.433594 9.820312 13.054687 11.125 6.148438 23.867188 9.6875 36.628906 10.25-5.589843 6.300782-12.347656 11.550782-19.855468 15.398438-1.621094.832031-2.484375 2.644531-2.101563 4.429688.378907 1.785156 1.910157 3.089843 3.730469 3.183593 9.34375.484375 18.644531 3.078125 26.894531 7.496094 1.503907.804687 3.554688 2.035156 3.984375 3.394531.421875 1.324219-.808594 3.332032-2.625 4.300782-2.476562 1.316406-5.921875 1.410156-8.960937 1.488281-1.871094.050781-3.460938 1.378906-3.839844 3.210937-.382813 1.832032.546875 3.683594 2.242187 4.472656 11.210938 5.234376 18.308594 18.414063 16.503907 30.65625-1.710938 11.625-11.351563 21.734376-22.804688 24.25.132813-6.003906-2.027343-11.6875-6-15.582031-8.679687-8.5-18.742187-3.902343-26.15625.359375.046875-1.511718.269531-3.089844.515625-4.84375.277344-1.988281.5625-4.039062.625-6.289062.207032-7.648438-.421875-15.273438-1.878906-22.671875-2.976562-15.15625-9.375-29.03125-18.503906-40.117188-17.1875-20.875-44.425782-31.667969-69.378906-27.488281-19.945313 3.339844-38.363282 15.808594-50.527344 34.210938-7.660156 11.582031-12.722656 25.125-15.042969 40.253906-.925781 6.03125-1.722656 12.480468-.476563 19.148437.0625.351563.195313 1.804688.300782 2.96875.160156 1.785157.300781 3.355469.453125 4.726563-5.730469-.375-11.996094.515625-17.683594 2.585937-6.492187 2.367188-11.511719 6.566407-14.1875 11.847657-11.851563-3.058594-23.78125-7.679688-26.914063-17.648438zm69.769532 45.699219c-.207032-1.46875-1.203125-2.703125-2.59375-3.21875-.457032-.167969-.929688-.25-1.398438-.25-.964844 0-1.917968.347656-2.664062 1.007812-7.761719 6.839844-17.289063 4.992188-23.289063.125-3.980469-3.226562-6.496093-7.773437-7.078125-12.804687-.398437-3.40625.03125-6.535156 1.242188-9.046875 1.683594-3.5 5.28125-6.464844 9.871094-8.136719 6.355468-2.3125 13.492187-2.832031 19.09375-1.390625 2.152343.554687 4.355468-.746094 4.910156-2.898437.296875-1.15625.0625-2.324219-.550782-3.246094-.367187-1.605469-.773437-6.074219-.953124-8.078125-.1875-2.058594-.28125-3.078125-.402344-3.71875-1.015625-5.429688-.300782-11.105469.519531-16.449219 2.113281-13.769531 6.882813-26.574219 13.800781-37.03125 10.773438-16.300781 27.644532-27.777344 45.132813-30.703125 22.171875-3.714844 46.433593 5.964844 61.824219 24.660156 8.277343 10.054688 14.09375 22.691407 16.816406 36.542969 1.339844 6.816406 1.921875 13.84375 1.726562 20.898438-.046875 1.796874-.292968 3.542968-.550781 5.394531-.570313 4.09375-1.222656 8.738281.652344 13.808593.410156 1.109376 1.289062 1.984376 2.402343 2.386719 1.109376.40625 2.339844.304688 3.371094-.28125.898438-.507812 1.824219-1.058593 2.769532-1.617187 8.191406-4.867188 13.925781-7.703125 18.792968-2.9375 2.703125 2.648437 4.023438 7 3.449219 11.363281-.441406 3.378906-1.882813 6.96875-4.402344 10.980469-2.640625 4.203125-5.363281 7.0625-8.328125 8.738281-3.261718 1.839844-7.113281 2.152344-9.8125.792969-1.148437-.578125-2.5-.570313-3.644531.011718-1.144531.585938-1.941406 1.679688-2.148437 2.949219-3.761719 23.300781-17.296876 43.355469-36.210938 53.644531-19.769531 10.753907-44.542969 11.148438-64.648438 1.035157-20.109374-10.117188-34.554687-30.246094-37.699218-52.53125zm34.070312 59.734375c10.832032 5.449218 22.875 8.164062 34.921875 8.164062 12.898438 0 25.800781-3.113281 37.203125-9.320312.007813-.003906.015625-.007813.023438-.011719.3125 2.308594.789062 4.542969 1.414062 6.691406-11.464844 14.144531-23.757812 27.867188-36.566406 40.792969-1 1.011719-2.859375 2.890625-4.175781 2.890625-.003907 0-.007813 0-.011719-.003906-1.148438-.007813-2.832031-1.492188-3.738281-2.289063-14.238281-12.523437-26.144531-27.269531-35.386719-43.824218-.140625-.253907-.308594-.484376-.492188-.695313.367188-1.898437.574219-3.871094.578126-5.925781 2.015624 1.269531 4.09375 2.453125 6.230468 3.53125zm-14.1875 18.183594c-1.890625 68.976562-.789062 138.726562 3.28125 207.566406-12.191406-13.171875-19.070312-30.835938-24.5625-46.441406-3.226562-9.167969-6.417968-18.933594-6.933594-28.679688-.550781-10.410156 2.148438-19.609375 7.601563-25.910156.207031-.238282.421875-.480469.636719-.726563 2.023437-2.285156 4.800781-5.421875 4.582031-9.707031-.304687-6.046875-6.328125-9.238281-8.59375-10.441406l-.910156-.480469c-4.863281-2.570313-9.457031-5-13.234375-8.378906-4.113282-3.683594-6.574219-8.203125-6.75-12.398438-.222656-5.15625 2.761718-10.34375 5.574218-14.804687 6.945313-11.015625 17.230469-26.476563 29.226563-38.917969.429687-.378906.867187-.753906 1.292969-1.148437 2.863281-2.652344 6.007812-5.832032 8.789062-9.53125zm-108.238281 202.742187c-5.222656-5.148437-4.765625-14.378906-3.921875-22.632813l5.324219-52.148437c3.058593-29.953125 7.375-58.347656 26.355469-76.539063 9.78125-9.378906 22.972656-15.207031 34.609374-20.34375l.105469-.046874c4.464844-1.972657 8.980469-3.972657 13.421875-6.148438-5.386718 7.339844-10.058594 14.503906-13.785156 20.414062-3.714844 5.894532-7.113281 12.328126-6.808594 19.445313.273438 6.449219 3.621094 12.867187 9.425782 18.0625 4.515624 4.042969 9.765624 6.816406 14.847656 9.503906l.902344.476563c3.507812 1.855468 4.28125 3.050781 4.316406 3.722656.050781 1-1.339844 2.574219-2.566406 3.957031-.234376.269531-.46875.53125-.695313.792969-6.824219 7.886719-10.21875 19.109375-9.558594 31.613281.570313 10.8125 3.960938 21.210938 7.378907 30.933594 5.1875 14.742187 11.582031 31.277344 22.457031 44.859375l-52.308594-.675781 1.382813-76.53125c.039062-2.226563-1.730469-4.0625-3.960938-4.105469-2.261719-.070312-4.0625 1.734375-4.101562 3.957031l-1.378907 76.574219-22.21875-.289062c-7.636719-.097657-14.855469-.542969-19.222656-4.851563zm301.957031 4.765625c-3.226562 3.414062-9.210937 3.628906-15.039062 3.550781l-24.335938-.316406c-1.984375-24.019531-1.402344-48.296875 1.746094-72.1875.289062-2.207031-1.261719-4.234375-3.46875-4.523437-2.207031-.296876-4.234375 1.261718-4.523438 3.46875-3.191406 24.207031-3.804687 48.796874-1.847656 73.136718l-55.152344-.710937c3.707032-7.828125 8.535157-15.28125 13.253907-22.527344 1.429687-2.195313 2.859375-4.390625 4.261719-6.597656 7.003906-11.027344 14.414062-24.257813 16.285156-38.777344 1.800781-13.953125-2.3125-27.570313-10.644532-36.296875 9.941407-6.613281 20.761719-16.75 24.28125-30.835938 3.097657-12.386718-.316406-24.398437-3.722656-32.296874-1.609375-3.722657-3.503906-7.273438-5.5625-10.699219 3.75 2.160156 7.53125 4.222656 11.265625 6.253906 3.535157 1.921875 7.191407 3.910156 10.714844 5.933594 11.449219 6.574219 25.621094 15.878906 33.640625 29.589843 8.992188 15.371094 9.523438 34.621094 9.988281 51.605469l1.863281 67.816407c.148438 5.53125.042969 11.195312-3.003906 14.414062zm0 0"/></svg>