<svg height="512pt" viewBox="0 0 512 512" width="512pt" xmlns="http://www.w3.org/2000/svg"><path d="m302 120c0-33.085938-26.914062-60-60-60s-60 26.914062-60 60 26.914062 60 60 60 60-26.914062 60-60zm-60 30c-16.542969 0-30-13.457031-30-30s13.457031-30 30-30 30 13.457031 30 30-13.457031 30-30 30zm0 0"/><path d="m332 270c0-49.625-40.375-90-90-90s-90 40.375-90 90v30h180zm-150 0c0-33.085938 26.914062-60 60-60s60 26.914062 60 60zm0 0"/><path d="m75 512h287c33.085938 0 60-26.914062 60-60 0-19.808594 0-347.335938 0-362h90v-30c0-33.085938-26.914062-60-60-60h-317c-41.355469 0-75 33.644531-75 75v347h-60v15c0 41.355469 33.644531 75 75 75zm407-452h-60c0-16.542969 13.457031-30 30-30s30 13.457031 30 30zm-392 15c0-24.8125 20.1875-45.011719 45-45.011719h265.070312c-5.121093 8.835938-8.070312 19.085938-8.070312 30.011719v392c0 16.542969-13.457031 30-30 30s-30-13.457031-30-30v-30h-242zm212 377c0 10.921875 2.933594 21.171875 8.050781 30h-235.050781c-19.554688 0-36.238281-12.539062-42.429688-30zm0 0"/><path d="m120 330h242v30h-242zm0 0"/></svg>